<svg width="101" height="80" viewBox="0 0 101 80" fill="none" xmlns="http://www.w3.org/2000/svg">
<path d="M0.759766 50C0.759766 48.8701 1.13641 47.9284 1.93679 47.1281C2.78425 46.3277 3.72587 45.951 4.76165 45.951H14.3662C15.449 45.951 16.3436 46.3277 17.0969 47.1281C17.8031 47.9284 18.1797 48.8701 18.1797 50C18.1797 51.1299 17.8031 52.0716 17.0969 52.8249C16.3907 53.6252 15.449 54.0019 14.3662 54.0019H4.80873C3.72587 54.0019 2.78425 53.6252 1.98387 52.8249C1.59831 52.4621 1.29086 52.0245 1.08038 51.5387C0.869889 51.053 0.760791 50.5294 0.759766 50ZM14.2249 17.467C14.2249 16.3842 14.6016 15.4426 15.3078 14.5951C16.2494 13.7947 17.2381 13.4181 18.321 13.4181C19.3097 13.4181 20.2513 13.7947 21.0987 14.5951L27.8313 21.4689C28.5846 22.1751 28.9613 23.1168 28.9613 24.2467C28.9613 25.3766 28.5846 26.3183 27.8313 27.0716C27.078 27.8249 26.1364 28.2015 25.0065 28.2015C23.8765 28.2015 22.9349 27.8249 22.2287 27.0716L15.3549 20.339C14.9864 19.9584 14.6969 19.5088 14.503 19.0159C14.3091 18.523 14.2146 17.9966 14.2249 17.467ZM14.9782 61.2994C14.9782 60.2637 15.3549 59.3691 16.0611 58.71C16.8144 58.0508 17.8031 57.6742 19.0743 57.6742H45.9575C47.2287 57.6742 48.2174 58.0038 48.9707 58.71C49.724 59.3691 50.1006 60.2637 50.1006 61.2994C50.1006 62.5706 49.724 63.5593 49.0178 64.3126C48.2645 65.0659 47.2758 65.4426 45.9575 65.4426H19.0743C17.8031 65.4426 16.8144 65.0659 16.0611 64.3597C15.3078 63.6535 14.9782 62.5706 14.9782 61.2994ZM19.6392 75.1883C19.6392 74.1525 20.063 73.2109 20.9575 72.3635C21.3277 71.9681 21.7743 71.6521 22.2703 71.4346C22.7663 71.2172 23.3013 71.1027 23.8429 71.0983C24.3845 71.0939 24.9213 71.1996 25.4207 71.409C25.9202 71.6184 26.3719 71.9271 26.7485 72.3164C27.5018 73.1638 27.8784 74.1055 27.8784 75.1883C27.8784 76.5066 27.5018 77.4953 26.7955 78.2486C26.0893 79.0019 25.0536 79.3315 23.7824 79.3315C22.7143 79.3437 21.6838 78.9382 20.9104 78.2015C20.4919 77.8221 20.1614 77.3559 19.9418 76.8354C19.7222 76.315 19.619 75.7528 19.6392 75.1883ZM26.2777 51.3653V51.0358C26.4189 45.1036 28.4905 39.9718 32.4453 35.5932C36.4001 31.2147 41.2494 28.5782 47.0404 27.6365H47.2758C48.1703 27.4482 49.3944 27.3541 50.8539 27.3541C52.3134 27.3541 53.5375 27.4482 54.4321 27.6365H54.6204C60.3643 28.5311 65.2607 31.2147 69.2155 35.5932C73.1703 39.9718 75.2419 45.1036 75.3831 51.0358V51.3653C75.3831 52.1186 75.0065 52.4953 74.3002 52.4953H68.9801C68.4151 52.4953 68.0385 52.354 67.8031 52.0716C67.594 51.8384 67.4769 51.5372 67.4735 51.2241C67.2852 46.8456 65.5903 43.1262 62.3888 40.0659C59.1873 37.0057 55.3737 35.4991 50.901 35.4991C46.4283 35.4991 42.6148 37.0057 39.4132 40.0659C36.2117 43.1262 34.5168 46.8456 34.3285 51.2241C34.3285 51.5066 34.1873 51.7891 33.9519 52.0716C33.7164 52.354 33.2927 52.4953 32.7277 52.4953H27.4076C26.6543 52.4953 26.2777 52.1186 26.2777 51.3653ZM31.0328 75.1883C31.0328 74.1055 31.4095 73.1638 32.1628 72.3164C32.9161 71.516 33.9048 71.0923 35.1289 71.0923H53.1609C54.1967 71.0923 55.1383 71.516 55.9858 72.3635C56.8332 73.2109 57.304 74.1525 57.304 75.1883C57.304 76.4124 56.8803 77.4482 56.0328 78.2015C55.1854 78.9548 54.2438 79.3315 53.1609 79.3315H35.1289C33.8577 79.3315 32.869 78.9548 32.1157 78.2486C31.3624 77.4953 31.0328 76.5066 31.0328 75.1883ZM46.7579 13.6064V4.04896C46.7579 2.91902 47.1345 1.9774 47.9349 1.17702C48.7353 0.376648 49.6769 0 50.8068 0C51.9368 0 52.8313 0.376648 53.6317 1.17702C54.4321 1.9774 54.8087 2.91902 54.8087 4.04896V13.6064C54.8087 14.6893 54.4321 15.6309 53.6317 16.3371C52.8313 17.0433 51.8897 17.467 50.8068 17.467C49.724 17.467 48.7353 17.0904 47.982 16.3842C47.2287 15.678 46.7579 14.6893 46.7579 13.6064ZM53.1609 61.2994C53.1609 60.3107 53.5846 59.4633 54.4321 58.7571C55.2795 58.0508 56.2212 57.6742 57.304 57.6742C58.3869 57.6742 59.3285 58.0508 60.176 58.7571C61.0234 59.4633 61.4471 60.3107 61.4471 61.2994C61.4471 62.5235 61.0234 63.5593 60.176 64.3126C59.3285 65.0659 58.3869 65.4426 57.304 65.4426C56.2212 65.4426 55.2325 65.0659 54.4321 64.3126C54.0171 63.9305 53.6889 63.4637 53.4696 62.9439C53.2503 62.4241 53.145 61.8634 53.1609 61.2994ZM60.4114 75.1883C60.4114 74.1055 60.788 73.1638 61.5413 72.3164C62.2946 71.516 63.3304 71.0923 64.5545 71.0923H73.3116C74.5357 71.0923 75.5244 71.516 76.2777 72.3164C77.0309 73.1638 77.4076 74.1055 77.4076 75.1883C77.4076 76.5066 77.0309 77.4953 76.3247 78.2486C75.6185 79.0019 74.5827 79.3315 73.3116 79.3315H64.5545C63.2833 79.3315 62.2946 78.9548 61.5413 78.2486C60.788 77.4953 60.4114 76.5066 60.4114 75.1883ZM64.5545 61.2994C64.5545 60.3107 64.9782 59.4633 65.8257 58.7571C66.6731 58.0508 67.6148 57.6742 68.6505 57.6742H83.1044C84.1402 57.6742 84.9876 58.0038 85.6468 58.71C86.3059 59.4162 86.6825 60.2637 86.6825 61.2994C86.6825 62.5706 86.353 63.5593 85.6938 64.3126C85.0347 65.0659 84.1873 65.4426 83.1044 65.4426H68.6505C67.5677 65.4426 66.6261 65.0659 65.7786 64.3126C65.3789 63.9211 65.0641 63.4516 64.8535 62.9332C64.6429 62.4149 64.5411 61.8588 64.5545 61.2994ZM72.7466 24.2467C72.7466 23.0697 73.1232 22.1281 73.8294 21.4689L80.5149 14.5951C81.3624 13.7947 82.304 13.4181 83.2927 13.4181C84.3756 13.4181 85.3172 13.7947 86.1176 14.5951C86.918 15.3955 87.2946 16.3371 87.2946 17.467C87.2946 18.597 86.9179 19.5857 86.1647 20.339L79.2908 27.0245C78.4434 27.7778 77.5018 28.1544 76.466 28.1544C75.3831 28.1544 74.5357 27.7778 73.8294 27.0245C73.471 26.6584 73.1903 26.2236 73.0042 25.7462C72.8181 25.2689 72.7305 24.7588 72.7466 24.2467ZM83.3869 50C83.3869 48.9171 83.7635 47.9755 84.5168 47.1281C85.3172 46.3277 86.2117 45.951 87.2004 45.951H96.7108C97.7937 45.951 98.7353 46.3748 99.5356 47.1751C100.336 47.9755 100.76 48.9171 100.76 50C100.76 51.0829 100.336 52.0245 99.5356 52.8249C98.7353 53.6252 97.7937 54.0019 96.7108 54.0019H87.2004C86.1176 54.0019 85.1759 53.6252 84.4697 52.8249C83.7635 52.0245 83.3869 51.1299 83.3869 50Z" fill="#707070"/>
</svg>
